<svg aria-hidden="true" style="position: absolute; width: 0; height: 0; overflow: hidden;" version="1.1" xmlns="http://www.w3.org/2000/svg" xmlns:xlink="http://www.w3.org/1999/xlink">
<defs>
<symbol id="icon-comment" viewBox="0 0 32 32">
<path d="M14.031 1.1c-3.3 0.444-6.325 1.938-8.656 4.275-2.356 2.35-3.844 5.375-4.281 8.706-0.125 0.963-0.125 2.869 0 3.837 0.275 2.1 0.975 4.094 2.063 5.9l0.406 0.675-0.656 2.625c-0.375 1.506-0.656 2.756-0.656 2.925 0 0.569 0.394 0.956 0.975 0.956 0.25 0 0.844-0.188 2.875-0.925l2.563-0.925 0.806 0.394c2.037 0.981 4.162 1.456 6.531 1.456 1.825 0 3.081-0.2 4.781-0.756 5.413-1.775 9.369-6.594 10.125-12.325 0.125-0.969 0.125-2.869 0-3.838-0.363-2.763-1.456-5.331-3.2-7.519-0.538-0.681-1.656-1.788-2.319-2.313-2.206-1.725-4.738-2.8-7.469-3.156-0.913-0.119-3.006-0.113-3.887 0.006zM17.5 3.131c5.35 0.587 9.881 4.631 11.119 9.912 0.431 1.856 0.431 4.056 0 5.912-1.113 4.762-4.9 8.55-9.663 9.663-1.337 0.313-3.181 0.419-4.494 0.256-1.656-0.2-3.319-0.756-4.963-1.65-0.625-0.344-0.688-0.331-2.869 0.456-1.031 0.369-1.881 0.65-1.881 0.619s0.213-0.894 0.469-1.925c0.263-1.044 0.469-2.006 0.469-2.175 0-0.275-0.050-0.375-0.469-1.019-1.094-1.663-1.781-3.481-2.063-5.444-0.119-0.837-0.119-2.637 0-3.475 0.769-5.406 4.763-9.744 10.044-10.912 1.456-0.319 2.775-0.388 4.3-0.219z"></path>
<path d="M7.95 12.125c-0.3 0.188-0.45 0.469-0.45 0.875s0.15 0.688 0.45 0.875c0.2 0.125 0.331 0.125 8.050 0.125s7.85 0 8.050-0.125c0.3-0.188 0.45-0.469 0.45-0.875s-0.15-0.688-0.45-0.875c-0.2-0.125-0.331-0.125-8.050-0.125s-7.85 0-8.050 0.125z"></path>
<path d="M7.95 18.125c-0.3 0.188-0.45 0.469-0.45 0.875s0.15 0.688 0.45 0.875c0.2 0.119 0.325 0.125 3.55 0.125s3.35-0.006 3.55-0.125c0.3-0.188 0.45-0.469 0.45-0.875s-0.15-0.688-0.45-0.875c-0.2-0.119-0.325-0.125-3.55-0.125s-3.35 0.006-3.55 0.125z"></path>
</symbol>
<symbol id="icon-download3" viewBox="0 0 32 32">
<path d="M23 14l-8 8-8-8h5v-12h6v12zM15 22h-15v8h30v-8h-15zM28 26h-4v-2h4v2z"></path>
</symbol>
<symbol id="icon-heart" viewBox="0 0 32 32">
<path d="M7.438 1.844c-1.256 0.219-2.775 0.875-3.756 1.619-1.663 1.256-2.9 3.206-3.413 5.35-0.275 1.175-0.356 2.956-0.181 4.094 0.456 2.975 2.231 5.8 5.688 9.050 1.281 1.206 2.175 1.994 5.812 5.125 2.238 1.931 3.363 2.856 3.6 2.969 0.488 0.238 1.138 0.238 1.625 0.006 0.469-0.231 7.131-5.956 9.387-8.075 3.456-3.244 5.256-6.1 5.713-9.075 0.175-1.137 0.094-2.919-0.181-4.094-0.512-2.144-1.75-4.094-3.413-5.35-1.006-0.763-2.512-1.406-3.819-1.619-0.706-0.119-2.15-0.119-2.85 0-1.938 0.337-3.756 1.413-5.125 3.044-0.269 0.319-0.5 0.581-0.525 0.581s-0.256-0.263-0.525-0.581c-1.369-1.631-3.188-2.706-5.125-3.044-0.675-0.113-2.238-0.113-2.912 0zM10.563 3.869c0.606 0.175 1.619 0.675 2.094 1.031 0.588 0.444 1.375 1.263 1.8 1.869 0.213 0.306 0.463 0.669 0.556 0.8 0.469 0.663 1.506 0.663 1.975 0 0.094-0.131 0.344-0.494 0.556-0.8 0.425-0.606 1.212-1.425 1.8-1.869 0.488-0.362 1.494-0.856 2.125-1.038 0.438-0.125 0.637-0.144 1.625-0.144 1.231 0.006 1.644 0.081 2.594 0.462 2.106 0.856 3.681 2.862 4.225 5.381 0.163 0.756 0.169 2.744 0.006 3.5-0.594 2.762-2.462 5.244-6.9 9.175-2.306 2.044-6.988 6.012-7.056 5.988-0.094-0.038-5.513-4.681-6.994-6-4.45-3.95-6.287-6.4-6.888-9.162-0.163-0.756-0.156-2.744 0.006-3.5 0.631-2.906 2.556-5.031 5.156-5.681 0.694-0.181 0.756-0.181 1.85-0.163 0.8 0.013 1.094 0.044 1.469 0.15z"></path>
</symbol>
<symbol id="icon-eye" viewBox="0 0 32 32">
<path d="M16 6c-6.979 0-13.028 4.064-16 10 2.972 5.936 9.021 10 16 10s13.027-4.064 16-10c-2.972-5.936-9.021-10-16-10zM23.889 11.303c1.88 1.199 3.473 2.805 4.67 4.697-1.197 1.891-2.79 3.498-4.67 4.697-2.362 1.507-5.090 2.303-7.889 2.303s-5.527-0.796-7.889-2.303c-1.88-1.199-3.473-2.805-4.67-4.697 1.197-1.891 2.79-3.498 4.67-4.697 0.122-0.078 0.246-0.154 0.371-0.228-0.311 0.854-0.482 1.776-0.482 2.737 0 4.418 3.582 8 8 8s8-3.582 8-8c0-0.962-0.17-1.883-0.482-2.737 0.124 0.074 0.248 0.15 0.371 0.228v0zM16 13c0 1.657-1.343 3-3 3s-3-1.343-3-3 1.343-3 3-3 3 1.343 3 3z"></path>
</symbol>
<symbol id="icon-visibility" viewBox="0 0 32 32">
<path d="M14.125 7.094c-2.719 0.381-5.356 1.544-7.688 3.406-1.25 1-2.931 2.825-3.581 3.894-0.325 0.531-0.444 0.969-0.444 1.606s0.119 1.075 0.444 1.606c0.644 1.063 2.325 2.881 3.581 3.894 2.338 1.869 4.994 3.038 7.75 3.413 0.844 0.113 2.781 0.113 3.625 0 4.156-0.563 8.087-2.962 10.863-6.631 0.563-0.75 0.794-1.219 0.894-1.831 0.15-0.906-0.1-1.675-0.856-2.681-2.8-3.719-6.719-6.119-10.9-6.681-0.819-0.106-2.881-0.106-3.688 0.006zM17.094 9.094c0.306 0.019 0.906 0.106 1.331 0.188 3.269 0.662 6.206 2.606 8.581 5.675 0.712 0.925 0.712 1.163 0 2.087-1.544 1.994-3.444 3.606-5.413 4.594-1.069 0.538-2.6 1.019-3.869 1.206-0.9 0.131-2.55 0.131-3.45 0-3.556-0.531-6.744-2.519-9.281-5.8-0.713-0.925-0.713-1.162 0-2.088 2.419-3.125 5.4-5.069 8.775-5.713 0.725-0.137 1.912-0.238 2.45-0.206 0.175 0.012 0.563 0.037 0.875 0.056z"></path>
<path d="M14.881 11.063c-0.475 0.1-0.894 0.256-1.412 0.525-0.619 0.313-1.338 1.006-1.706 1.631-0.569 0.969-0.838 2.269-0.706 3.387 0.25 2.106 1.463 3.619 3.381 4.219 0.419 0.125 0.588 0.144 1.563 0.144 1.269 0 1.594-0.063 2.469-0.494 1.231-0.606 2.069-1.7 2.413-3.15 0.113-0.462 0.125-0.675 0.1-1.45-0.038-1.050-0.125-1.412-0.512-2.219-0.587-1.219-1.556-2.044-2.875-2.469-0.363-0.119-0.606-0.144-1.438-0.162-0.55-0.012-1.125 0.006-1.275 0.037zM17.262 13.294c0.556 0.262 0.881 0.531 1.181 0.975 0.669 1.006 0.669 2.456 0 3.463-0.3 0.444-0.625 0.712-1.181 0.975-0.406 0.194-0.444 0.2-1.262 0.2s-0.856-0.006-1.262-0.2c-0.556-0.262-0.881-0.531-1.181-0.975-0.338-0.512-0.494-1.050-0.494-1.731 0-1.206 0.55-2.144 1.55-2.65 0.475-0.244 0.719-0.281 1.512-0.269 0.663 0.019 0.756 0.037 1.137 0.213z"></path>
</symbol>
<symbol id="icon-file" viewBox="0 0 32 32">
<path d="M6.175 0.15c-1.2 0.425-2.181 1.419-2.625 2.663l-0.144 0.406v25.438l0.144 0.406c0.45 1.256 1.444 2.25 2.7 2.7l0.406 0.144 9.244 0.019c10.319 0.019 9.544 0.050 10.537-0.431 0.431-0.212 0.631-0.363 1.063-0.8 0.556-0.556 0.813-0.962 1.075-1.694l0.144-0.406 0.019-9.906c0.012-9.575 0.012-9.912-0.106-10.094-0.063-0.106-1.919-2.081-4.125-4.394l-4.012-4.2h-13.9l-0.419 0.15zM19.262 4.263c0.019 2.281 0.044 2.819 0.119 3.050 0.4 1.162 1.188 1.956 2.306 2.325 0.381 0.125 0.563 0.137 2.925 0.162l2.512 0.025v9.169c0 9.156 0 9.169-0.131 9.556-0.313 0.919-1.125 1.606-2.1 1.762-0.488 0.081-17.175 0.081-17.669 0-0.787-0.125-1.581-0.675-1.919-1.319-0.356-0.675-0.331 0.25-0.356-12.775-0.006-7.588 0.006-12.144 0.044-12.394 0.175-1.138 1.075-2.075 2.175-2.263 0.162-0.025 2.95-0.050 6.188-0.056l5.888-0.006 0.019 2.763zM23.319 5.331c1.319 1.388 2.469 2.6 2.556 2.694l0.156 0.169-3.75-0.037-0.356-0.175c-0.444-0.219-0.75-0.55-0.919-1.006-0.125-0.331-0.131-0.469-0.131-2.256 0-1.050 0.012-1.906 0.025-1.906s1.106 1.131 2.419 2.519z"></path>
<path d="M15.644 10.688c-0.375 0.225-0.363 0.031-0.394 4.7l-0.031 4.287-1.563-1.688c-0.856-0.925-1.637-1.725-1.731-1.775-0.225-0.119-0.675-0.113-0.85 0.012-0.294 0.206-0.419 0.756-0.244 1.063 0.144 0.256 4.725 5.125 4.887 5.2 0.231 0.106 0.469 0.094 0.7-0.038 0.113-0.056 1.256-1.238 2.544-2.625 2.531-2.725 2.512-2.688 2.356-3.206-0.050-0.169-0.144-0.288-0.275-0.369-0.212-0.131-0.663-0.169-0.85-0.063-0.063 0.031-0.831 0.825-1.7 1.762l-1.587 1.7-0.031-4.281c-0.031-4.069-0.038-4.281-0.15-4.45-0.238-0.356-0.712-0.456-1.081-0.231z"></path>
<path d="M9.475 25.063c-0.313 0.1-0.6 0.456-0.6 0.75 0 0.231 0.2 0.569 0.4 0.694 0.188 0.113 0.444 0.119 6.781 0.119 6.438 0 6.587 0 6.781-0.125 0.481-0.294 0.506-0.95 0.056-1.294l-0.225-0.175-6.506-0.012c-3.581-0.006-6.588 0.012-6.688 0.044z"></path>
</symbol>
<symbol id="icon-cloud-download" viewBox="0 0 32 32">
<path d="M15 27.25l-3.25-3.25-0.75 0.75 4.5 4.5 4.5-4.5-0.75-0.75-3.25 3.25v-11.25h-1v11.25zM14 22h-6.997c-2.205 0-4.003-1.791-4.003-4 0-1.895 1.325-3.488 3.101-3.898v0c-0.066-0.357-0.101-0.726-0.101-1.102 0-3.314 2.686-6 6-6 2.615 0 4.84 1.673 5.661 4.008 0.774-0.63 1.762-1.008 2.839-1.008 2.358 0 4.293 1.814 4.484 4.123v0c1.73 0.44 3.016 2.009 3.016 3.877 0 2.205-1.792 4-4.003 4h-6.997v1h7.001c2.761 0 4.999-2.244 4.999-5 0-2.096-1.287-3.892-3.117-4.634v0c-0.523-2.493-2.734-4.366-5.383-4.366-0.863 0-1.679 0.199-2.406 0.553-1.203-2.121-3.481-3.553-6.094-3.553-3.866 0-7 3.134-7 7 0 0.138 0.004 0.275 0.012 0.412v0c-1.772 0.77-3.012 2.538-3.012 4.588 0 2.761 2.232 5 4.999 5h7.001v-1z"></path>
</symbol>
</defs>
</svg>
